<?xml version="1.0" encoding="UTF-8" standalone="no"?>
<!-- Generator: Adobe Illustrator 24.1.0, SVG Export Plug-In . SVG Version: 6.00 Build 0)  -->

<svg
   xmlns:dc="http://purl.org/dc/elements/1.1/"
   xmlns:cc="http://creativecommons.org/ns#"
   xmlns:rdf="http://www.w3.org/1999/02/22-rdf-syntax-ns#"
   xmlns:svg="http://www.w3.org/2000/svg"
   xmlns="http://www.w3.org/2000/svg"
   xmlns:sodipodi="http://sodipodi.sourceforge.net/DTD/sodipodi-0.dtd"
   xmlns:inkscape="http://www.inkscape.org/namespaces/inkscape"
   version="1.1"
   id="Calque_1"
   x="0px"
   y="0px"
   viewBox="0 0 921.02005 159.82999"
   xml:space="preserve"
   sodipodi:docname="logo-horizontal.svg"
   width="921.02002"
   height="159.83"
   inkscape:version="0.92.4 (5da689c313, 2019-01-14)"
   inkscape:export-filename="/home/bersace/src/dalibo/dramatiq-pg/docs/logo-horizontal.png"
   inkscape:export-xdpi="100.06"
   inkscape:export-ydpi="100.06"><metadata
   id="metadata973"><rdf:RDF><cc:Work
       rdf:about=""><dc:format>image/svg+xml</dc:format><dc:type
         rdf:resource="http://purl.org/dc/dcmitype/StillImage" /><dc:title /></cc:Work></rdf:RDF></metadata><defs
   id="defs971" /><sodipodi:namedview
   pagecolor="#ffffff"
   bordercolor="#666666"
   borderopacity="1"
   objecttolerance="10"
   gridtolerance="10"
   guidetolerance="10"
   inkscape:pageopacity="0"
   inkscape:pageshadow="2"
   inkscape:window-width="2560"
   inkscape:window-height="1373"
   id="namedview969"
   showgrid="false"
   fit-margin-top="2"
   fit-margin-right="2"
   fit-margin-bottom="2"
   fit-margin-left="2"
   inkscape:zoom="1.1972412"
   inkscape:cx="257.4355"
   inkscape:cy="58.656183"
   inkscape:window-x="1920"
   inkscape:window-y="30"
   inkscape:window-maximized="1"
   inkscape:current-layer="Calque_1" />
<style
   type="text/css"
   id="style922">
	.st0{fill:#FFCF00;}
</style>
<g
   id="g956"
   transform="translate(-68.93,-217.72)">
	<g
   id="g954">
		<g
   id="g952">
			<g
   id="g950">
				<g
   id="g948">
					<g
   id="g946">
						<path
   class="st0"
   d="m 247.47,256.4 h 22.86 c 12.76,0 22.27,0.91 28.51,2.73 6.25,1.82 11.61,4.91 16.07,9.26 3.94,3.79 6.87,8.16 8.78,13.11 1.91,4.95 2.87,10.56 2.87,16.83 0,6.34 -0.96,12 -2.87,16.97 -1.91,4.97 -4.84,9.35 -8.78,13.14 -4.5,4.35 -9.91,7.44 -16.21,9.26 -6.31,1.82 -15.76,2.73 -28.37,2.73 h -22.86 z m 21.68,16.38 v 51.28 h 7.77 c 8.86,0 15.62,-2.2 20.3,-6.59 4.67,-4.39 7.01,-10.77 7.01,-19.14 0,-8.33 -2.33,-14.67 -6.98,-19.02 -4.65,-4.35 -11.43,-6.53 -20.32,-6.53 z"
   id="path924"
   inkscape:connector-curvature="0"
   style="fill:#ffcf00" />
						<path
   class="st0"
   d="m 383.35,294.56 c -1.77,-0.82 -3.52,-1.44 -5.26,-1.83 -1.75,-0.39 -3.5,-0.59 -5.26,-0.59 -5.18,0 -9.17,1.66 -11.96,4.98 -2.8,3.32 -4.19,8.08 -4.19,14.27 v 29.04 h -20.15 v -63.04 h 20.15 v 10.36 c 2.59,-4.13 5.56,-7.14 8.92,-9.03 3.36,-1.89 7.38,-2.84 12.08,-2.84 0.68,0 1.41,0.03 2.2,0.08 0.79,0.06 1.93,0.18 3.43,0.37 z"
   id="path926"
   inkscape:connector-curvature="0"
   style="fill:#ffcf00" />
						<path
   class="st0"
   d="m 446.67,304.46 v 35.97 h -20.32 v -9.34 c -2.7,3.83 -5.74,6.61 -9.12,8.36 -3.38,1.75 -7.49,2.62 -12.33,2.62 -6.53,0 -11.83,-1.9 -15.9,-5.71 -4.07,-3.81 -6.11,-8.75 -6.11,-14.83 0,-7.39 2.54,-12.81 7.63,-16.27 5.08,-3.45 13.07,-5.18 23.95,-5.18 h 11.88 v -1.57 c 0,-3.19 -1.26,-5.53 -3.77,-7.01 -2.51,-1.48 -6.44,-2.22 -11.77,-2.22 -4.32,0 -8.33,0.43 -12.05,1.29 -3.72,0.86 -7.17,2.16 -10.36,3.88 v -15.37 c 4.32,-1.05 8.65,-1.85 13,-2.39 4.35,-0.54 8.71,-0.82 13.06,-0.82 11.37,0 19.58,2.24 24.63,6.73 5.05,4.48 7.58,11.77 7.58,21.86 z m -30.8,7.6 c -4.2,0 -7.37,0.71 -9.49,2.14 -2.12,1.43 -3.18,3.53 -3.18,6.3 0,2.55 0.85,4.55 2.56,5.99 1.71,1.45 4.08,2.17 7.12,2.17 3.79,0 6.98,-1.36 9.57,-4.08 2.59,-2.72 3.88,-6.12 3.88,-10.22 v -2.31 h -10.46 z"
   id="path928"
   inkscape:connector-curvature="0"
   style="fill:#ffcf00" />
						<path
   class="st0"
   d="m 518.08,287.86 c 2.55,-3.9 5.58,-6.87 9.09,-8.92 3.51,-2.04 7.37,-3.07 11.57,-3.07 7.24,0 12.76,2.23 16.55,6.7 3.79,4.47 5.68,10.96 5.68,19.47 v 38.39 H 540.7 v -32.87 c 0.04,-0.49 0.06,-0.99 0.08,-1.52 0.02,-0.53 0.03,-1.28 0.03,-2.25 0,-4.47 -0.66,-7.7 -1.97,-9.71 -1.31,-2.01 -3.43,-3.01 -6.36,-3.01 -3.83,0 -6.79,1.58 -8.87,4.73 -2.08,3.15 -3.16,7.71 -3.24,13.68 v 30.96 H 500.1 v -32.87 c 0,-6.98 -0.6,-11.47 -1.8,-13.48 -1.2,-2.01 -3.34,-3.01 -6.42,-3.01 -3.87,0 -6.85,1.59 -8.95,4.76 -2.1,3.17 -3.15,7.7 -3.15,13.59 v 31.01 H 459.51 V 277.4 h 20.27 v 9.23 c 2.48,-3.56 5.32,-6.25 8.53,-8.05 3.21,-1.8 6.75,-2.7 10.61,-2.7 4.35,0 8.2,1.05 11.54,3.15 3.36,2.09 5.9,5.04 7.62,8.83 z"
   id="path930"
   inkscape:connector-curvature="0"
   style="fill:#ffcf00" />
						<path
   class="st0"
   d="m 633.07,304.46 v 35.97 h -20.32 v -9.34 c -2.7,3.83 -5.74,6.61 -9.12,8.36 -3.38,1.75 -7.49,2.62 -12.33,2.62 -6.53,0 -11.83,-1.9 -15.9,-5.71 -4.07,-3.81 -6.11,-8.75 -6.11,-14.83 0,-7.39 2.54,-12.81 7.63,-16.27 5.09,-3.45 13.07,-5.18 23.95,-5.18 h 11.88 v -1.57 c 0,-3.19 -1.26,-5.53 -3.77,-7.01 -2.51,-1.48 -6.44,-2.22 -11.77,-2.22 -4.32,0 -8.33,0.43 -12.05,1.29 -3.72,0.86 -7.17,2.16 -10.36,3.88 v -15.37 c 4.32,-1.05 8.65,-1.85 13,-2.39 4.35,-0.54 8.71,-0.82 13.06,-0.82 11.37,0 19.58,2.24 24.63,6.73 5.06,4.48 7.58,11.77 7.58,21.86 z m -30.79,7.6 c -4.2,0 -7.37,0.71 -9.49,2.14 -2.12,1.43 -3.18,3.53 -3.18,6.3 0,2.55 0.85,4.55 2.56,5.99 1.71,1.45 4.08,2.17 7.12,2.17 3.79,0 6.98,-1.36 9.57,-4.08 2.59,-2.72 3.88,-6.12 3.88,-10.22 v -2.31 h -10.46 z"
   id="path932"
   inkscape:connector-curvature="0"
   style="fill:#ffcf00" />
						<path
   class="st0"
   d="m 668.07,259.49 v 17.9 h 20.77 v 14.41 h -20.77 v 26.74 c 0,2.93 0.58,4.91 1.75,5.94 1.16,1.03 3.47,1.55 6.92,1.55 h 10.36 v 14.41 h -17.28 c -7.96,0 -13.6,-1.66 -16.92,-4.98 -3.32,-3.32 -4.98,-8.96 -4.98,-16.91 V 291.8 H 637.9 v -14.41 h 10.02 v -17.9 z"
   id="path934"
   inkscape:connector-curvature="0"
   style="fill:#ffcf00" />
						<path
   class="st0"
   d="m 695.4,252.85 h 20.15 v 16.43 H 695.4 Z m 0,24.54 h 20.15 v 63.04 H 695.4 Z"
   id="path936"
   inkscape:connector-curvature="0"
   style="fill:#ffcf00" />
						<path
   class="st0"
   d="m 772.06,331.31 c -2.78,3.72 -5.84,6.44 -9.18,8.16 -3.34,1.73 -7.21,2.59 -11.6,2.59 -7.77,0 -14.15,-3.09 -19.14,-9.26 -4.99,-6.17 -7.49,-14.12 -7.49,-23.84 0,-9.72 2.49,-17.65 7.49,-23.78 4.99,-6.13 11.37,-9.2 19.14,-9.2 4.39,0 8.26,0.86 11.6,2.59 3.34,1.73 6.4,4.45 9.18,8.16 v -9.34 h 20.27 v 87.02 H 772.06 Z M 758.77,290.5 c -4.28,0 -7.55,1.58 -9.82,4.73 -2.27,3.15 -3.41,7.73 -3.41,13.73 0,6 1.14,10.58 3.41,13.73 2.27,3.15 5.55,4.73 9.82,4.73 4.32,0 7.61,-1.58 9.88,-4.73 2.27,-3.15 3.41,-7.73 3.41,-13.73 0,-6 -1.14,-10.58 -3.41,-13.73 -2.27,-3.15 -5.56,-4.73 -9.88,-4.73 z"
   id="path938"
   inkscape:connector-curvature="0"
   style="fill:#ffcf00" />
						<path
   class="st0"
   d="m 802.49,299.06 h 35.35 v 16.38 h -35.35 z"
   id="path940"
   inkscape:connector-curvature="0"
   style="fill:#ffcf00" />
						<path
   class="st0"
   d="m 868.17,331.31 v 33.09 h -20.15 v -87.02 h 20.15 v 9.23 c 2.78,-3.68 5.85,-6.39 9.23,-8.13 3.38,-1.75 7.26,-2.62 11.65,-2.62 7.77,0 14.15,3.09 19.14,9.26 4.99,6.17 7.49,14.12 7.49,23.84 0,9.72 -2.5,17.66 -7.49,23.84 -4.99,6.17 -11.37,9.26 -19.14,9.26 -4.39,0 -8.28,-0.87 -11.65,-2.62 -3.38,-1.74 -6.45,-4.45 -9.23,-8.13 z m 13.4,-40.81 c -4.32,0 -7.63,1.59 -9.94,4.76 -2.31,3.17 -3.46,7.74 -3.46,13.71 0,5.97 1.15,10.53 3.46,13.7 2.31,3.17 5.62,4.76 9.94,4.76 4.32,0 7.61,-1.58 9.88,-4.73 2.27,-3.15 3.41,-7.73 3.41,-13.73 0,-6 -1.14,-10.58 -3.41,-13.73 -2.27,-3.16 -5.57,-4.74 -9.88,-4.74 z"
   id="path942"
   inkscape:connector-curvature="0"
   style="fill:#ffcf00" />
						<path
   class="st0"
   d="m 967.68,329.73 c -2.78,3.68 -5.84,6.38 -9.18,8.11 -3.34,1.73 -7.21,2.59 -11.6,2.59 -7.69,0 -14.06,-3.03 -19.08,-9.09 -5.03,-6.06 -7.54,-13.78 -7.54,-23.16 0,-9.42 2.51,-17.14 7.54,-23.16 5.03,-6.02 11.39,-9.03 19.08,-9.03 4.39,0 8.26,0.86 11.6,2.59 3.34,1.73 6.4,4.45 9.18,8.16 v -9.34 h 20.27 v 56.68 c 0,10.13 -3.2,17.87 -9.6,23.22 -6.4,5.35 -15.68,8.02 -27.84,8.02 -3.94,0 -7.75,-0.3 -11.43,-0.9 -3.68,-0.6 -7.37,-1.52 -11.09,-2.76 v -15.7 c 3.53,2.03 6.98,3.54 10.36,4.53 3.38,0.99 6.78,1.49 10.19,1.49 6.6,0 11.45,-1.44 14.52,-4.33 3.08,-2.89 4.62,-7.41 4.62,-13.57 z M 954.39,290.5 c -4.17,0 -7.41,1.54 -9.74,4.62 -2.33,3.08 -3.49,7.43 -3.49,13.06 0,5.78 1.13,10.16 3.38,13.14 2.25,2.98 5.54,4.47 9.85,4.47 4.2,0 7.47,-1.54 9.8,-4.61 2.33,-3.08 3.49,-7.41 3.49,-13 0,-5.63 -1.16,-9.98 -3.49,-13.06 -2.33,-3.08 -5.59,-4.62 -9.8,-4.62 z"
   id="path944"
   inkscape:connector-curvature="0"
   style="fill:#ffcf00" />
					</g>
				</g>
			</g>
		</g>
	</g>
</g>
<g
   id="g966"
   transform="translate(-68.93,-217.72)">
	<path
   class="st0"
   d="m 184.34,267.97 c -0.75,-0.74 -1.74,-1.15 -2.8,-1.15 l -40.25,-0.17 -40.59,-0.17 c -1.01,0 -1.96,0.38 -2.71,1.06 -0.52,0.51 -0.93,1.18 -1.14,1.96 l 41.78,22.76 c 1.52,0.83 3.27,0.84 4.8,0.02 l 41.97,-22.41 c -0.17,-0.62 -0.45,-1.17 -0.82,-1.64 -0.05,-0.05 -0.08,-0.11 -0.13,-0.17 -0.05,-0.03 -0.08,-0.06 -0.11,-0.09 z"
   id="path958"
   inkscape:connector-curvature="0"
   style="fill:#ffcf00" />
	<path
   class="st0"
   d="m 201.48,251.64 -50.92,-29.4 c -5.81,-3.36 -13.33,-3.36 -19.14,0 l -50.92,29.4 c -5.9,3.41 -9.57,9.76 -9.57,16.57 v 58.8 c 0,6.82 3.67,13.17 9.57,16.58 l 50.92,29.4 c 2.9,1.68 6.21,2.56 9.57,2.56 3.36,0 6.66,-0.89 9.57,-2.56 l 50.92,-29.4 c 5.9,-3.41 9.57,-9.76 9.57,-16.58 v -58.8 c 0,-6.81 -3.67,-13.16 -9.57,-16.57 z m -0.39,75.38 c 0,3.27 -1.76,6.32 -4.59,7.95 l -36.62,21.14 c -1.92,-5.74 -6.68,-10.5 -10.73,-14.55 -0.79,-0.79 -1.55,-1.55 -2.26,-2.28 -2.07,-2.15 -3.09,-4.6 -3.03,-7.31 0.04,-1.97 0.68,-3.79 1.45,-5.28 -2.07,0.01 -4.6,0.02 -7.13,0.02 -2.9,0 -5.09,-0.86 -6.51,-2.56 -2.58,-3.09 -1.72,-7.81 -0.96,-11.98 0.32,-1.74 0.85,-4.65 0.48,-5.35 -0.49,-0.56 -1.23,-0.4 -4.25,2.17 -0.85,0.73 -1.66,1.42 -2.45,1.88 -4.08,2.39 -8.94,6.72 -8.94,13.77 0,8.29 4.8,13.48 9.04,18.06 1.96,2.12 3.81,4.11 5.01,6.24 1.03,1.84 2.87,6.92 2.19,12.76 L 85.47,334.96 c -2.83,-1.63 -4.59,-4.68 -4.59,-7.95 v -58.8 c 0,-3.27 1.76,-6.32 4.59,-7.95 l 50.92,-29.4 c 1.39,-0.8 2.98,-1.23 4.59,-1.23 1.61,0 3.2,0.42 4.59,1.23 l 50.92,29.4 c 2.83,1.63 4.59,4.68 4.59,7.95 v 58.81 z"
   id="path960"
   inkscape:connector-curvature="0"
   style="fill:#ffcf00" />
	<g
   id="g964">
		<path
   class="st0"
   d="m 145.65,296.47 c -1.45,0.77 -3.03,1.16 -4.61,1.16 -1.61,0 -3.22,-0.4 -4.69,-1.2 l -39.7,-21.63 -0.17,42.85 c 0,1.08 0.41,2.09 1.17,2.86 0.76,0.76 1.77,1.19 2.85,1.19 l 10.55,0.04 c 0.93,-6.04 4.77,-11.28 11.06,-14.96 0.43,-0.25 1.11,-0.83 1.77,-1.39 2.31,-1.97 7.12,-6.08 10.96,-1.61 1.85,2.15 1.25,5.44 0.55,9.24 -0.55,2.99 -1.22,6.7 -0.07,8.09 0.31,0.37 0.85,0.61 1.57,0.74 l 44.43,0.19 c 0.01,0 0.01,0 0.02,0 2.22,0 4.02,-1.8 4.03,-4.02 l 0.17,-42.86 z"
   id="path962"
   inkscape:connector-curvature="0"
   style="fill:#ffcf00" />
	</g>
</g>
</svg>