<?xml version="1.0" encoding="UTF-8" standalone="no"?>
<!-- Generator: Adobe Illustrator 24.1.0, SVG Export Plug-In . SVG Version: 6.00 Build 0)  -->

<svg
   xmlns:dc="http://purl.org/dc/elements/1.1/"
   xmlns:cc="http://creativecommons.org/ns#"
   xmlns:rdf="http://www.w3.org/1999/02/22-rdf-syntax-ns#"
   xmlns:svg="http://www.w3.org/2000/svg"
   xmlns="http://www.w3.org/2000/svg"
   xmlns:sodipodi="http://sodipodi.sourceforge.net/DTD/sodipodi-0.dtd"
   xmlns:inkscape="http://www.inkscape.org/namespaces/inkscape"
   version="1.1"
   id="Calque_1"
   x="0px"
   y="0px"
   viewBox="0 0 339.99999 339.99999"
   xml:space="preserve"
   sodipodi:docname="logo.svg"
   width="340"
   height="340"
   inkscape:version="0.92.4 (5da689c313, 2019-01-14)"
   inkscape:export-filename="/home/bersace/src/dalibo/dramatiq-pg/docs/logo.png"
   inkscape:export-xdpi="144.56"
   inkscape:export-ydpi="144.56"><metadata
   id="metadata53"><rdf:RDF><cc:Work
       rdf:about=""><dc:format>image/svg+xml</dc:format><dc:type
         rdf:resource="http://purl.org/dc/dcmitype/StillImage" /><dc:title></dc:title></cc:Work></rdf:RDF></metadata><defs
   id="defs51" /><sodipodi:namedview
   pagecolor="#ffffff"
   bordercolor="#666666"
   borderopacity="1"
   objecttolerance="10"
   gridtolerance="10"
   guidetolerance="10"
   inkscape:pageopacity="0"
   inkscape:pageshadow="2"
   inkscape:window-width="2560"
   inkscape:window-height="1373"
   id="namedview49"
   showgrid="false"
   inkscape:zoom="0.9983453"
   inkscape:cx="389.48635"
   inkscape:cy="54.237255"
   inkscape:window-x="1920"
   inkscape:window-y="30"
   inkscape:window-maximized="1"
   inkscape:current-layer="Calque_1" />
<style
   type="text/css"
   id="style2">
	.st0{fill:#FFCF00;}
</style>

<g
   id="g46"
   transform="matrix(2.2286362,0,0,2.2286362,-768.15555,-349.81268)">
	<path
   class="st0"
   d="m 462.07,205.1 c -0.71,-0.7 -1.65,-1.09 -2.66,-1.09 l -38.18,-0.16 -38.51,-0.16 c -0.96,0 -1.86,0.36 -2.57,1.01 -0.49,0.49 -0.88,1.12 -1.09,1.86 l 39.63,21.59 c 1.44,0.79 3.1,0.79 4.55,0.02 l 39.81,-21.26 c -0.16,-0.59 -0.43,-1.11 -0.77,-1.55 -0.04,-0.05 -0.08,-0.11 -0.13,-0.16 -0.02,-0.04 -0.06,-0.07 -0.08,-0.1 z"
   id="path38"
   inkscape:connector-curvature="0"
   style="fill:#ffcf00" />
	<path
   class="st0"
   d="m 478.33,189.61 -48.3,-27.89 c -5.51,-3.18 -12.64,-3.18 -18.15,0 l -48.31,27.89 c -5.6,3.23 -9.08,9.26 -9.08,15.72 v 55.78 c 0,6.47 3.48,12.49 9.08,15.72 l 48.31,27.89 c 2.75,1.59 5.89,2.43 9.08,2.43 3.18,0 6.32,-0.84 9.08,-2.43 l 48.3,-27.89 c 5.6,-3.23 9.08,-9.26 9.08,-15.72 v -55.78 c -0.02,-6.46 -3.49,-12.49 -9.09,-15.72 z m -0.37,71.5 c 0,3.1 -1.67,5.99 -4.35,7.54 l -34.73,20.05 c -1.82,-5.45 -6.33,-9.96 -10.18,-13.8 -0.75,-0.75 -1.47,-1.47 -2.14,-2.16 -1.96,-2.04 -2.93,-4.37 -2.88,-6.93 0.04,-1.87 0.64,-3.59 1.38,-5.01 -1.96,0.01 -4.37,0.02 -6.76,0.02 -2.75,0 -4.83,-0.82 -6.18,-2.43 -2.45,-2.93 -1.63,-7.41 -0.91,-11.37 0.3,-1.65 0.8,-4.41 0.46,-5.07 -0.46,-0.53 -1.17,-0.38 -4.03,2.06 -0.81,0.69 -1.57,1.34 -2.33,1.79 -3.87,2.27 -8.48,6.37 -8.48,13.07 0,7.87 4.56,12.79 8.58,17.13 1.86,2.01 3.61,3.9 4.75,5.92 0.98,1.74 2.72,6.56 2.08,12.1 L 368.3,268.65 c -2.69,-1.55 -4.35,-4.44 -4.35,-7.54 v -55.78 c 0,-3.1 1.67,-5.99 4.35,-7.54 l 48.3,-27.89 c 1.32,-0.76 2.83,-1.17 4.35,-1.17 1.53,0 3.03,0.4 4.35,1.17 l 48.3,27.89 c 2.69,1.55 4.35,4.44 4.35,7.54 v 55.78 z"
   id="path40"
   inkscape:connector-curvature="0"
   style="fill:#ffcf00" />
	<g
   id="g44">
		<path
   class="st0"
   d="m 425.37,232.13 c -1.37,0.73 -2.88,1.1 -4.38,1.1 -1.53,0 -3.06,-0.38 -4.45,-1.14 l -37.66,-20.52 -0.16,40.65 c 0,1.02 0.39,1.98 1.11,2.71 0.72,0.73 1.68,1.13 2.7,1.13 l 10.01,0.04 c 0.88,-5.73 4.53,-10.7 10.49,-14.19 0.41,-0.24 1.05,-0.79 1.68,-1.32 2.19,-1.87 6.75,-5.77 10.4,-1.52 1.75,2.04 1.18,5.16 0.52,8.77 -0.52,2.83 -1.16,6.36 -0.06,7.68 0.29,0.35 0.8,0.58 1.49,0.7 l 42.15,0.18 c 0,0 0.01,0 0.02,0 2.1,0 3.82,-1.71 3.83,-3.81 l 0.16,-40.65 z"
   id="path42"
   inkscape:connector-curvature="0"
   style="fill:#ffcf00" />
	</g>
</g>
</svg>